HIERARCHY
ROOT hip
{
  OFFSET 0 0 0
  CHANNELS 6 Xposition Yposition Zposition Zrotation Yrotation Xrotation
  JOINT abdomen
  {
    OFFSET 0 20.6881 -0.73152
    CHANNELS 3 Zrotation Xrotation Yrotation
    JOINT chest
    {
      OFFSET 0 11.7043 -0.48768
      CHANNELS 3 Zrotation Xrotation Yrotation
      JOINT neck
      {
        OFFSET 0 22.1894 -2.19456
        CHANNELS 3 Zrotation Xrotation Yrotation
        JOINT head
        {
          OFFSET -0.24384 7.07133 1.2192
          CHANNELS 3 Zrotation Xrotation Yrotation
          JOINT leftEye
          {
            OFFSET 4.14528 8.04674 8.04672
            CHANNELS 3 Zrotation Xrotation Yrotation
            End Site
            {
              OFFSET 1 0 0
            }
          }
          JOINT rightEye
          {
            OFFSET -3.6576 8.04674 8.04672
            CHANNELS 3 Zrotation Xrotation Yrotation
            End Site
            {
              OFFSET 1 0 0
            }
          }
        }
      }
      JOINT rCollar
      {
        OFFSET -2.68224 19.2634 -4.8768
        CHANNELS 3 Zrotation Xrotation Yrotation
        JOINT rShldr
        {
          OFFSET -8.77824 -1.95073 1.46304
          CHANNELS 3 Zrotation Xrotation Yrotation
          JOINT rForeArm
          {
            OFFSET -28.1742 -1.7115 0.48768
            CHANNELS 3 Zrotation Xrotation Yrotation
            JOINT rHand
            {
              OFFSET -22.5879 0.773209 7.07136
              CHANNELS 3 Zrotation Xrotation Yrotation
              JOINT rThumb1
              {
                OFFSET -1.2192 -0.487915 3.41376
                CHANNELS 3 Zrotation Xrotation Yrotation
                JOINT rThumb2
                {
                  OFFSET -3.37035 -0.52449 3.41376
                  CHANNELS 3 Zrotation Xrotation Yrotation
                  End Site
                  {
                    OFFSET -1.78271 -1.18214 1.43049
                  }
                }
              }
              JOINT rIndex1
              {
                OFFSET -7.75947 0.938293 5.60832
                CHANNELS 3 Zrotation Xrotation Yrotation
                JOINT rIndex2
                {
                  OFFSET -2.54057 -0.884171 1.56538
                  CHANNELS 3 Zrotation Xrotation Yrotation
                  End Site
                  {
                    OFFSET -1.62519 -0.234802 1.16502
                  }
                }
              }
              JOINT rMid1
              {
                OFFSET -8.24714 1.18213 3.41376
                CHANNELS 3 Zrotation Xrotation Yrotation
                JOINT rMid2
                {
                  OFFSET -3.10165 -0.590103 1.0647
                  CHANNELS 3 Zrotation Xrotation Yrotation
                  End Site
                  {
                    OFFSET -2.48547 -0.328903 0.83742
                  }
                }
              }
              JOINT rRing1
              {
                OFFSET -8.82822 0.546677 1.51678
                CHANNELS 3 Zrotation Xrotation Yrotation
                JOINT rRing2
                {
                  OFFSET -2.60934 -0.819778 -0.0198488
                  CHANNELS 3 Zrotation Xrotation Yrotation
                  End Site
                  {
                    OFFSET -2.33842 -0.294052 0.168128
                  }
                }
              }
              JOINT rPinky1
              {
                OFFSET -8.27202 -0.0477905 -0.4584
                CHANNELS 3 Zrotation Xrotation Yrotation
                JOINT rPinky2
                {
                  OFFSET -1.82734 -0.647385 -0.700984
                  CHANNELS 3 Zrotation Xrotation Yrotation
                  End Site
                  {
                    OFFSET -1.69225 -0.51767 -0.607171
                  }
                }
              }
            }
          }
        }
      }
      JOINT lCollar
      {
        OFFSET 2.68224 19.2634 -4.8768
        CHANNELS 3 Zrotation Xrotation Yrotation
        JOINT lShldr
        {
          OFFSET 8.77824 -1.95073 1.46304
          CHANNELS 3 Zrotation Xrotation Yrotation
          JOINT lForeArm
          {
            OFFSET 28.1742 -1.7115 0.48768
            CHANNELS 3 Zrotation Xrotation Yrotation
            JOINT lHand
            {
              OFFSET 22.5879 0.773209 7.07136
              CHANNELS 3 Zrotation Xrotation Yrotation
              JOINT lThumb1
              {
                OFFSET 1.2192 -0.487915 3.41376
                CHANNELS 3 Zrotation Xrotation Yrotation
                JOINT lThumb2
                {
                  OFFSET 3.37035 -0.52449 3.41376
                  CHANNELS 3 Zrotation Xrotation Yrotation
                  End Site
                  {
                    OFFSET 1.78271 -1.18214 1.43049
                  }
                }
              }
              JOINT lIndex1
              {
                OFFSET 7.75947 0.938293 5.60832
                CHANNELS 3 Zrotation Xrotation Yrotation
                JOINT lIndex2
                {
                  OFFSET 2.54057 -0.884171 1.56538
                  CHANNELS 3 Zrotation Xrotation Yrotation
                  End Site
                  {
                    OFFSET 1.62519 -0.234802 1.16502
                  }
                }
              }
              JOINT lMid1
              {
                OFFSET 8.24714 1.18213 3.41376
                CHANNELS 3 Zrotation Xrotation Yrotation
                JOINT lMid2
                {
                  OFFSET 3.10165 -0.590103 1.0647
                  CHANNELS 3 Zrotation Xrotation Yrotation
                  End Site
                  {
                    OFFSET 2.48547 -0.328903 0.83742
                  }
                }
              }
              JOINT lRing1
              {
                OFFSET 8.82822 0.546677 1.51678
                CHANNELS 3 Zrotation Xrotation Yrotation
                JOINT lRing2
                {
                  OFFSET 2.60934 -0.819778 -0.0198488
                  CHANNELS 3 Zrotation Xrotation Yrotation
                  End Site
                  {
                    OFFSET 2.33842 -0.294052 0.168128
                  }
                }
              }
              JOINT lPinky1
              {
                OFFSET 8.27202 -0.0477905 -0.4584
                CHANNELS 3 Zrotation Xrotation Yrotation
                JOINT lPinky2
                {
                  OFFSET 1.82734 -0.647385 -0.700984
                  CHANNELS 3 Zrotation Xrotation Yrotation
                  End Site
                  {
                    OFFSET 1.69225 -0.51767 -0.607171
                  }
                }
              }
            }
          }
        }
      }
    }
  }
  JOINT rButtock
  {
    OFFSET -8.77824 4.35084 1.2192
    CHANNELS 3 Zrotation Xrotation Yrotation
    JOINT rThigh
    {
      OFFSET 0 -1.70687 -2.19456
      CHANNELS 3 Zrotation Xrotation Yrotation
      JOINT rShin
      {
        OFFSET 0 -36.8199 0.73152
        CHANNELS 3 Zrotation Xrotation Yrotation
        JOINT rFoot
        {
          OFFSET 0.73152 -45.1104 -5.12064
          CHANNELS 3 Zrotation Xrotation Yrotation
          End Site
          {
            OFFSET -1.1221 -3.69964 12.103
          }
        }
      }
    }
  }
  JOINT lButtock
  {
    OFFSET 8.77824 4.35084 1.2192
    CHANNELS 3 Zrotation Xrotation Yrotation
    JOINT lThigh
    {
      OFFSET 0 -1.70687 -2.19456
      CHANNELS 3 Zrotation Xrotation Yrotation
      JOINT lShin
      {
        OFFSET 0 -36.8199 0.73152
        CHANNELS 3 Zrotation Xrotation Yrotation
        JOINT lFoot
        {
          OFFSET -0.73152 -45.1104 -5.12064
          CHANNELS 3 Zrotation Xrotation Yrotation
          End Site
          {
            OFFSET 1.1221 -3.69964 12.103
          }
        }
      }
    }
  }
}
MOTION
Frames:	5
Frame Time:	0.00833333
-148.0977 83.0419 -19.004791 -169.87604 39.72261 -167.3801 -0.21495269 -8.274768 -4.7994366 9.589625 -11.241789 0.22237147 -5.477604 23.322 -18.837595 19.631504 -18.427786 -32.3194 -0.0 0.0 -0.0 -0.0 0.0 -0.0 -0.0 0.0 -0.0 80.8847 7.522692 21.8264 -28.025799 -40.320297 84.469696 -4.411348 -49.567257 -9.503564 0.0 0.0 -0.0 0.0 0.0 -0.0 0.0 0.0 -0.0 7.7309012 5.4749126 0.41732216 0.0 0.0 -0.0 2.9055667 0.9650755 0.103008196 0.0 0.0 -0.0 10.278597 0.731881 0.026273511 0.0 0.0 -0.0 2.2216635 -0.73345095 -0.208321 -0.0 0.0 -0.0 -69.75009 14.252496 50.517296 26.820005 -44.482395 -92.407 1.2363427 29.88111 -4.6309733 0.0 0.0 0.0 0.0 0.0 0.0 0.0 0.0 0.0 -7.7309012 5.4749126 -0.41732216 0.0 0.0 0.0 -2.9055667 0.9650755 -0.103008196 0.0 0.0 0.0 -10.278597 0.731881 -0.026273511 0.0 0.0 0.0 -2.2216635 -0.73345095 0.208321 -0.0 0.0 -0.0 6.2258053 -20.002098 14.587289 -0.057862666 29.278297 0.42861176 3.2932734 -2.119743 46.1931 0.0 0.0 0.0 9.0631275 -23.997702 -37.337406 0.5368594 47.224102 -0.8392087 -2.3916404 -17.473906 -7.6576056
-152.3019 83.3571 -20.77179 -170.166 56.89731 -168.33998 -1.8057884 -6.0161242 -2.280028 9.415882 -11.120403 0.7741841 -5.395718 21.343803 -15.212296 17.273794 -16.755098 -26.119999 -0.0 0.0 -0.0 -0.0 0.0 -0.0 -0.0 0.0 -0.0 81.951 17.18806 16.587837 -28.4027 -37.1291 78.8747 -3.783837 -47.125698 -8.697717 -0.0 -0.0 -0.0 -0.0 -0.0 -0.0 -0.0 -0.0 -0.0 7.7309012 5.4749126 0.41732216 -0.0 -0.0 -0.0 2.9055667 0.9650755 0.103008196 -0.0 -0.0 -0.0 10.278597 0.731881 0.026273511 -0.0 -0.0 -0.0 2.2216635 -0.73345095 -0.208321 -0.0 0.0 -0.0 -60.283504 8.166858 42.0751 26.8486 -44.407196 -92.26019 1.3650942 31.210138 -4.884818 -0.0 -0.0 -0.0 -0.0 -0.0 -0.0 -0.0 -0.0 -0.0 -7.7309012 5.4749126 -0.41732216 -0.0 -0.0 -0.0 -2.9055667 0.9650755 -0.103008196 -0.0 -0.0 -0.0 -10.278597 0.731881 -0.026273511 -0.0 -0.0 -0.0 -2.2216635 -0.73345095 0.208321 -0.0 0.0 -0.0 0.9352993 -23.111797 13.274787 -0.18763997 33.1818 0.3238509 5.643472 -4.205026 42.528 0.0 0.0 0.0 8.696172 -18.66949 -23.082699 0.45930827 43.706703 -0.6596138 -3.9957266 -17.774685 -11.267697
-157.22841 83.6675 -23.469091 -178.48499 69.30274 -177.77342 -3.9477031 -3.048453 0.043751664 8.218326 -12.012996 1.2259833 -6.049928 21.05079 -12.566193 15.382291 -17.228891 -21.524109 -0.0 0.0 -0.0 -0.0 0.0 -0.0 -0.0 0.0 -0.0 83.58429 25.712206 8.838856 -28.421396 -34.7589 74.9305 -3.4710584 -45.587173 -8.248162 -0.0 -0.0 -0.0 -0.0 -0.0 -0.0 -0.0 -0.0 -0.0 7.7309012 5.4749126 0.41732216 -0.0 -0.0 -0.0 2.9055667 0.9650755 0.103008196 -0.0 -0.0 -0.0 10.278597 0.731881 0.026273511 -0.0 -0.0 -0.0 2.2216635 -0.73345095 -0.208321 -0.0 0.0 -0.0 -57.368305 3.2824037 27.648102 26.670397 -44.846306 -93.143295 1.3265535 30.660093 -4.7835674 -0.0 0.0 0.0 -0.0 0.0 0.0 -0.0 0.0 0.0 -7.7309012 5.4749126 -0.41732216 -0.0 0.0 0.0 -2.9055667 0.9650755 -0.103008196 -0.0 0.0 0.0 -10.278597 0.731881 -0.026273511 -0.0 0.0 0.0 -2.2216635 -0.73345095 0.208321 -0.0 0.0 -0.0 -2.1586945 -27.7278 10.621388 -0.36772895 41.21811 0.5554027 1.1071994 -10.065585 5.827658 0.0 0.0 0.0 5.28827 -14.301403 -7.3187904 0.3659071 40.085003 -0.5948397 -3.847167 -19.68949 -10.027505
-162.4069 82.500206 -26.61219 157.78914 75.854225 157.67004 -9.869671 1.4000679 0.49239054 6.2988315 -13.166905 0.95982933 -6.8323197 19.850704 -10.316591 13.948907 -18.141293 -17.5577 -0.0 0.0 -0.0 -0.0 0.0 -0.0 -0.0 0.0 -0.0 87.6818 31.552795 -0.79992133 -28.369705 -33.7853 73.3592 -4.086563 -48.34611 -9.089215 -0.0 0.0 0.0 -0.0 0.0 0.0 -0.0 0.0 0.0 7.7309012 5.4749126 0.41732216 -0.0 0.0 0.0 2.9055667 0.9650755 0.103008196 -0.0 0.0 0.0 10.278597 0.731881 0.026273511 -0.0 0.0 0.0 2.2216635 -0.73345095 -0.208321 -0.0 0.0 -0.0 -59.384907 1.8802631 9.331632 26.519302 -45.191998 -93.85619 1.4022002 31.579084 -4.95588 -0.0 -0.0 -0.0 -0.0 -0.0 -0.0 -0.0 -0.0 -0.0 -7.7309012 5.4749126 -0.41732216 -0.0 -0.0 -0.0 -2.9055667 0.9650755 -0.103008196 -0.0 -0.0 -0.0 -10.278597 0.731881 -0.026273511 -0.0 -0.0 -0.0 -2.2216635 -0.73345095 0.208321 -0.0 0.0 -0.0 -10.95841 -32.1529 -0.99383986 -0.65547466 52.890617 1.2289472 -5.7034063 -13.072406 -16.539993 0.0 0.0 0.0 -4.916275 -11.758104 -2.5380342 0.27743772 37.04029 -0.6413589 -2.3128188 -21.7581 -6.046486
-167.0079 81.2692 -29.58769 129.78401 75.26052 128.74988 -14.81278 3.7419548 0.38097522 3.2636888 -12.643803 0.41243815 -7.204064 18.838892 -9.044441 15.368801 -18.981802 -14.840697 -0.0 0.0 -0.0 -0.0 0.0 -0.0 -0.0 -0.0 -0.0 92.58249 32.7765 -11.9515 -28.331995 -33.29841 72.5823 -4.1379633 -48.55285 -9.159072 -0.0 0.0 -0.0 -0.0 0.0 -0.0 -0.0 0.0 -0.0 7.7309012 5.4749126 0.41732216 -0.0 0.0 -0.0 2.9055667 0.9650755 0.103008196 -0.0 0.0 -0.0 10.278597 0.731881 0.026273511 -0.0 0.0 -0.0 2.2216635 -0.73345095 -0.208321 -0.0 -0.0 -0.0 -64.604095 7.3829823 -9.853746 26.607094 -44.9931 -93.445175 1.4995855 32.513294 -5.139468 -0.0 -0.0 -0.0 -0.0 -0.0 -0.0 -0.0 -0.0 -0.0 -7.7309012 5.4749126 -0.41732216 -0.0 -0.0 -0.0 -2.9055667 0.9650755 -0.103008196 -0.0 -0.0 -0.0 -10.278597 0.731881 -0.026273511 -0.0 -0.0 -0.0 -2.2216635 -0.73345095 0.208321 -0.0 0.0 -0.0 -18.490807 -34.5306 -10.054502 -1.5272568 66.153015 2.1626008 -4.480247 -11.692674 -13.061713 0.0 0.0 0.0 -14.822889 -14.687305 -4.1523666 0.29447362 39.735428 -0.7737377 0.58433664 -22.285301 0.32990098
